<svg width="609" height="194" viewBox="0 0 609 194" fill="none" xmlns="http://www.w3.org/2000/svg">
<path d="M199.142 13.462H158.849L205.731 124.456H217.387L225.623 78.3353L209.025 85.1774H208.518L213.84 49.9533V49.4464L199.142 13.462Z" fill="#FF1921"/>
<path d="M252.105 13.462H288.849L241.968 124.456H222.456L259.454 39.6901V39.0566L242.982 45.1384H242.475L252.105 13.462Z" fill="#FF1921"/>
<rect y="78.6803" width="159.198" height="114.32" rx="15" fill="#2C2C2C"/>
<path d="M148.99 100H10.01C1.19894 100 -3.29762 90.0476 2.81605 84.0773L72.6527 15.8778C76.5955 12.0275 83.1528 12.0428 87.0751 15.9116L156.218 84.1111C162.284 90.0938 157.777 100 148.99 100Z" fill="#2C2C2C"/>
<path d="M0 159H19.306C27.5903 159 34.306 165.716 34.306 174V193.319H15C6.71573 193.319 0 186.603 0 178.319V159Z" fill="#FF1921"/>
<path d="M57.8493 78.6803H22.1979L63.679 178.227H73.9932L81.2805 136.863L66.5939 142.999H66.1455L70.8541 111.408V110.953L57.8493 78.6803Z" fill="#FF1921"/>
<path d="M104.712 78.6803H137.224L95.7429 178.227H78.4778L111.214 102.203V101.635L96.6398 107.09H96.1914L104.712 78.6803Z" fill="#FF1921"/>
<path d="M291.809 124V34.4H317.153V124H291.809ZM335.184 124V34.4H376.144C384.336 34.4 391.376 35.7227 397.264 38.368C403.238 41.0133 407.846 44.8533 411.088 49.888C414.331 54.8373 415.952 60.7253 415.952 67.552C415.952 74.2933 414.331 80.1387 411.088 85.088C407.846 89.952 403.238 93.7067 397.264 96.352C391.376 98.912 384.336 100.192 376.144 100.192H349.264L360.528 89.568V124H335.184ZM390.608 124L368.336 91.36H395.344L417.744 124H390.608ZM360.528 92.256L349.264 80.608H374.608C379.899 80.608 383.824 79.456 386.384 77.152C389.03 74.848 390.352 71.648 390.352 67.552C390.352 63.3707 389.03 60.128 386.384 57.824C383.824 55.52 379.899 54.368 374.608 54.368H349.264L360.528 42.72V92.256ZM447.756 124V54.496H420.236V34.4H500.492V54.496H473.1V124H447.756ZM553.868 125.792C546.7 125.792 540.087 124.64 534.028 122.336C527.97 120.032 522.679 116.789 518.156 112.608C513.719 108.341 510.263 103.392 507.788 97.76C505.314 92.128 504.076 85.9413 504.076 79.2C504.076 72.4587 505.314 66.272 507.788 60.64C510.263 55.008 513.719 50.1013 518.156 45.92C522.679 41.6533 527.97 38.368 534.028 36.064C540.087 33.76 546.7 32.608 553.868 32.608C561.122 32.608 567.735 33.76 573.708 36.064C579.767 38.368 585.015 41.6533 589.452 45.92C593.89 50.1013 597.346 55.008 599.82 60.64C602.38 66.272 603.66 72.4587 603.66 79.2C603.66 85.9413 602.38 92.1707 599.82 97.888C597.346 103.52 593.89 108.427 589.452 112.608C585.015 116.789 579.767 120.032 573.708 122.336C567.735 124.64 561.122 125.792 553.868 125.792ZM553.868 104.8C557.282 104.8 560.439 104.203 563.34 103.008C566.327 101.813 568.887 100.107 571.02 97.888C573.239 95.584 574.946 92.8533 576.14 89.696C577.42 86.5387 578.06 83.04 578.06 79.2C578.06 75.2747 577.42 71.776 576.14 68.704C574.946 65.5467 573.239 62.8587 571.02 60.64C568.887 58.336 566.327 56.5867 563.34 55.392C560.439 54.1973 557.282 53.6 553.868 53.6C550.455 53.6 547.255 54.1973 544.268 55.392C541.367 56.5867 538.807 58.336 536.588 60.64C534.455 62.8587 532.748 65.5467 531.468 68.704C530.274 71.776 529.676 75.2747 529.676 79.2C529.676 83.04 530.274 86.5387 531.468 89.696C532.748 92.8533 534.455 95.584 536.588 97.888C538.807 100.107 541.367 101.813 544.268 103.008C547.255 104.203 550.455 104.8 553.868 104.8Z" fill="#FF1921"/>
<path d="M181.849 129.195H244.527V145.802H201.817V152.27H239.424V168.44H201.817V175.344H244.527V191.951H181.849V129.195Z" fill="#FF1921"/>
<path d="M269.486 129.195V191.951H249.608V129.195H269.486Z" fill="#FF1921"/>
<path d="M343.296 177.967V161.01H334.342V145.452H343.296V133.828H362.906V145.452H380.634V161.01H362.906V171.586C362.906 174.995 364.875 176.743 369.263 176.743C372.576 176.743 376.337 176.131 379.381 174.907L383.142 189.416C378.396 191.252 372.218 192.825 362.726 192.825C350.997 192.825 343.296 187.668 343.296 177.967Z" fill="#FF1921"/>
<path d="M429.915 145.715V164.069C427.766 163.807 426.513 163.72 423.916 163.72C415.052 163.72 408.247 166.604 408.247 175.869V192.039H388.369V145.715H408.247V153.144C412.365 147.812 417.021 145.452 424.811 145.452C426.96 145.452 428.304 145.54 429.915 145.715Z" fill="#FF1921"/>
<path d="M434.849 143.093V129.195H454.727V143.093H434.849ZM454.727 145.627V191.951H434.849V145.627H454.727Z" fill="#FF1921"/>
<path d="M459.349 168.789C459.349 154.542 471.169 144.578 489.524 144.578C506.358 144.578 515.939 153.231 517.819 161.185L499.553 166.954C498.389 162.933 495.165 159.787 489.435 159.787C483.167 159.787 479.048 163.37 479.048 168.789C479.048 174.208 483.167 177.792 489.435 177.792C495.165 177.792 498.389 174.645 499.553 170.625L517.819 176.393C515.939 184.347 506.358 193 489.524 193C471.169 193 459.349 183.036 459.349 168.789Z" fill="#FF1921"/>
<path d="M539.788 193.524C526.805 193.524 519.015 187.931 519.015 179.365C519.015 168.789 529.222 164.769 540.146 164.332L556.532 163.632V163.458C556.532 161.447 554.831 159.35 548.921 159.35C543.728 159.35 541.041 161.01 540.146 163.195L521.074 160.661C524.118 151.221 534.595 145.19 549.906 145.19C565.844 145.19 575.693 151.046 575.693 163.458V176.393C575.693 178.578 576.41 179.715 580.349 178.928V192.563C569.246 194.398 561.815 193.087 558.144 189.067C553.756 192.039 547.399 193.524 539.788 193.524ZM556.532 174.995V174.733L542.564 175.519C539.788 175.694 538.266 176.219 538.266 177.967C538.266 179.715 540.415 180.676 545.071 180.676C551.249 180.676 556.532 178.316 556.532 174.995Z" fill="#FF1921"/>
<path d="M303.479 145.742C309.142 145.742 314 146.512 318.055 148.052C322.18 149.591 325.326 151.9 327.494 154.979C329.731 158.058 330.849 161.935 330.849 166.608V173.619H295.089C295.229 175.983 296.348 177.935 298.445 179.474C300.612 181.014 303.723 181.784 307.778 181.784C311.414 181.784 314.735 181.509 317.741 180.959C320.747 180.409 323.858 179.529 327.074 178.32V189.619C324.278 190.773 321.201 191.625 317.846 192.175C314.56 192.725 310.4 193 305.366 193C299.494 193 294.25 192.203 289.636 190.608C285.092 188.959 281.491 186.402 278.834 182.938C276.178 179.474 274.849 175.048 274.849 169.66C274.849 164.162 276.038 159.653 278.415 156.134C280.862 152.615 284.218 150.003 288.482 148.299C292.817 146.595 297.816 145.742 303.479 145.742ZM304.213 156.464C301.836 156.464 299.843 157.041 298.235 158.196C296.697 159.351 295.788 161.192 295.509 163.722H312.707C312.707 162.347 312.358 161.137 311.658 160.093C311.029 158.993 310.085 158.113 308.827 157.454C307.569 156.794 306.03 156.464 304.213 156.464ZM327.913 129.825C326.655 130.595 325.082 131.557 323.194 132.711C321.306 133.811 319.279 134.966 317.112 136.175C314.944 137.33 312.847 138.457 310.819 139.557C308.862 140.601 307.184 141.481 305.786 142.196H292.467V141.041C293.656 139.997 295.089 138.787 296.767 137.412C298.445 135.983 300.123 134.526 301.801 133.041C303.479 131.557 304.877 130.21 305.995 129H327.913V129.825Z" fill="#FF1921"/>
</svg>
